<svg width="48" height="48" viewBox="0 0 48 48" fill="none" xmlns="http://www.w3.org/2000/svg">
<rect width="48" height="48" rx="6" fill="#47B5FF"/>
<g clip-path="url(#clip0_0_11704)">
<path d="M29.8333 16.5H26.35C26 15.5333 25.0833 14.8333 24 14.8333C22.9167 14.8333 22 15.5333 21.65 16.5H18.1667C17.25 16.5 16.5 17.25 16.5 18.1666V29.8333C16.5 30.75 17.25 31.5 18.1667 31.5H29.8333C30.75 31.5 31.5 30.75 31.5 29.8333V18.1666C31.5 17.25 30.75 16.5 29.8333 16.5ZM24 16.5C24.4583 16.5 24.8333 16.875 24.8333 17.3333C24.8333 17.7916 24.4583 18.1666 24 18.1666C23.5417 18.1666 23.1667 17.7916 23.1667 17.3333C23.1667 16.875 23.5417 16.5 24 16.5ZM22.3333 28.1666L19 24.8333L20.175 23.6583L22.3333 25.8083L27.825 20.3166L29 21.5L22.3333 28.1666Z" fill="white"/>
</g>
<defs>
<clipPath id="clip0_0_11704">
<rect width="20" height="20" fill="white" transform="translate(14 14)"/>
</clipPath>
</defs>
</svg>
