<svg width="48" height="48" viewBox="0 0 48 48" fill="none" xmlns="http://www.w3.org/2000/svg">
<rect width="48" height="48" rx="6" fill="#256D85"/>
<g clip-path="url(#clip0_0_11712)">
<path d="M32.175 24.6167L31.4917 24.0917V23.9083L32.1584 23.3833C32.2917 23.2833 32.325 23.1 32.2417 22.9583L31.5334 21.725C31.475 21.6167 31.3584 21.5583 31.2417 21.5583C31.2 21.5583 31.1584 21.5667 31.1167 21.5833L30.325 21.9C30.2584 21.8583 30.2334 21.8417 30.1667 21.8083L30.0417 20.9667C30.0167 20.7917 29.875 20.6667 29.7084 20.6667H28.2834C28.1167 20.6667 27.975 20.7917 27.95 20.95L27.8334 21.7917C27.8084 21.8083 27.775 21.8167 27.75 21.8333L27.675 21.8833L26.8834 21.5667C26.8417 21.55 26.8 21.5417 26.7584 21.5417C26.6417 21.5417 26.5334 21.6 26.4667 21.7083L25.7584 22.9417C25.675 23.0833 25.7084 23.2667 25.8417 23.3667L26.5084 23.8917V24.0833L25.8417 24.6083C25.7084 24.7083 25.675 24.8917 25.7584 25.0333L26.4667 26.2667C26.525 26.375 26.6417 26.4333 26.7584 26.4333C26.8 26.4333 26.8417 26.425 26.8834 26.4083L27.675 26.1C27.7417 26.1417 27.775 26.1583 27.8417 26.1917L27.9667 27.0333C27.9917 27.2 28.1334 27.3167 28.3 27.3167H29.725C29.8917 27.3167 30.0334 27.1917 30.0584 27.0333L30.1834 26.1917C30.2084 26.175 30.2417 26.1667 30.2667 26.15L30.3417 26.1L31.1334 26.4167C31.175 26.4333 31.2167 26.4417 31.2584 26.4417C31.375 26.4417 31.4834 26.3833 31.55 26.275L32.2584 25.0417C32.3417 24.9 32.3084 24.7167 32.175 24.6167ZM29 25.25C28.3084 25.25 27.75 24.6917 27.75 24C27.75 23.3083 28.3084 22.75 29 22.75C29.6917 22.75 30.25 23.3083 30.25 24C30.25 24.6917 29.6917 25.25 29 25.25ZM28.1667 28.1667H29.8334V31.5C29.8334 32.4167 29.0834 33.1667 28.1667 33.1667H19.8334C18.9167 33.1667 18.1667 32.4167 18.1667 31.5V16.5C18.1667 15.5833 18.9167 14.8333 19.8334 14.8333H28.1667C29.0834 14.8333 29.8334 15.5833 29.8334 16.5V19.8333H28.1667V19H19.8334V29H28.1667V28.1667Z" fill="white"/>
</g>
<defs>
<clipPath id="clip0_0_11712">
<rect width="20" height="20" fill="white" transform="translate(14 14)"/>
</clipPath>
</defs>
</svg>
