<svg width="48" height="48" viewBox="0 0 48 48" fill="none" xmlns="http://www.w3.org/2000/svg">
<rect width="48" height="48" rx="6" fill="#FE7E6D"/>
<g clip-path="url(#clip0_0_11693)">
<path fill-rule="evenodd" clip-rule="evenodd" d="M30.6667 16.5H17.3334C16.4167 16.5 15.6667 17.25 15.6667 18.1667V29.8333C15.6667 30.75 16.4167 31.5 17.3334 31.5H30.6667C31.5834 31.5 32.3334 30.75 32.3334 29.8333V18.1667C32.3334 17.25 31.5834 16.5 30.6667 16.5ZM22.3334 28.1667H18.1667V26.5H22.3334V28.1667ZM22.3334 24.8333H18.1667V23.1667H22.3334V24.8333ZM22.3334 21.5H18.1667V19.8333H22.3334V21.5ZM26.35 26.5L24 24.1333L25.175 22.9583L26.35 24.1417L28.9917 21.5L30.175 22.6833L26.35 26.5Z" fill="white"/>
</g>
<defs>
<clipPath id="clip0_0_11693">
<rect width="20" height="20" fill="white" transform="translate(14 14)"/>
</clipPath>
</defs>
</svg>
