<svg width="129" height="30" viewBox="0 0 129 30" fill="none" xmlns="http://www.w3.org/2000/svg">
<path d="M7.14163 2.41383C4.97528 3.74769 3.18278 5.61442 1.93331 7.83784C0.683838 10.0613 0.0186017 12.5681 0.000384496 15.1216C-0.0178327 17.6752 0.61157 20.1913 1.82919 22.4325C3.04681 24.6737 4.81249 26.5661 6.95959 27.9311L16.5517 15.2347L7.14163 2.41383Z" fill="#6292F2"/>
<path d="M24.4826 3.69507C22.8985 2.26634 21.028 1.21012 19.0025 0.600652C16.977 -0.00881888 14.8457 -0.15675 12.7584 0.167257L19.777 11.0345L24.4826 3.69507Z" fill="#6292F2"/>
<path d="M12.4135 29.7848C14.6207 30.1665 16.8857 30.0393 19.0366 29.413C21.1875 28.7867 23.1678 27.6777 24.8272 26.1701L19.835 18.9656L12.4135 29.7848Z" fill="#6292F2"/>
<path d="M27.9094 7.93108L22.7585 15.1397L28.0093 22.069C29.108 19.8743 29.6721 17.4467 29.6547 14.9878C29.6373 12.529 29.039 10.1098 27.9094 7.93108Z" fill="#6292F2"/>
<path d="M57.5389 22.3246L60.5288 17.8981L63.5179 22.3246H68.4346L62.8858 14.9082L68.0028 8.06635H63.0869L60.5576 11.8608L58.0274 8.06635H53.1115L58.1998 14.8794L52.623 22.3246H57.5389Z" fill="#6292F2"/>
<path d="M72.9877 22.3196H76.9596V11.5802H80.7887V8.06466H76.9486V8.03846L76.9613 6.39477C76.9795 6.19935 77.0292 6.00816 77.1084 5.82856C77.3056 5.35551 77.678 4.97701 78.1478 4.7722C78.3322 4.69369 78.5279 4.64519 78.7276 4.62854C78.7752 4.62204 78.8232 4.61894 78.8712 4.61924H80.7904V1.09016C79.9208 1.09016 79.1619 1.09016 78.529 1.09016H78.5061C78.436 1.09016 78.3718 1.09016 78.3177 1.09016C78.196 1.09016 78.0684 1.10031 78.0456 1.10284C77.7196 1.12071 77.3956 1.16366 77.0762 1.23129C77.0543 1.23721 77.0315 1.24059 77.0129 1.24735C76.7982 1.30369 76.5869 1.36454 76.3791 1.42989C75.7327 1.64759 75.1403 2.00083 74.6416 2.46596C74.1176 2.96934 73.7076 3.57908 73.439 4.25417C73.4196 4.29896 73.401 4.34375 73.3849 4.38854C73.3689 4.43333 73.3494 4.4815 73.3334 4.52967C73.3013 4.62178 73.2725 4.71812 73.2404 4.81446V4.82037C73.215 4.92009 73.1897 5.01897 73.1643 5.12123C73.1415 5.22348 73.1196 5.32912 73.1001 5.43475C73.0233 5.89127 72.9857 6.35353 72.9877 6.81647V8.03508H71.1167V11.5768H72.9877V22.3196Z" fill="#6292F2"/>
<path d="M124.306 1.46626V9.0188C123.777 8.52452 123.14 8.15973 122.447 7.95314C121.665 7.7316 120.855 7.62513 120.043 7.63708C119.071 7.62789 118.108 7.82971 117.221 8.22864C116.376 8.60891 115.617 9.15755 114.99 9.84107C114.356 10.5385 113.858 11.3481 113.522 12.2284C112.812 14.112 112.812 16.1895 113.522 18.0731C113.858 18.9543 114.356 19.7649 114.99 20.463C115.617 21.1462 116.376 21.6946 117.221 22.0745C118.887 22.8086 120.773 22.8605 122.476 22.219C123.253 21.9216 123.862 21.5424 124.304 21.0816V22.3196H128.276V1.46626H124.306ZM123.197 18.1593C122.478 18.801 121.6 19.1218 120.563 19.1218C120.061 19.1256 119.564 19.0176 119.109 18.8057C118.664 18.6017 118.263 18.3149 117.925 17.9607C117.584 17.5973 117.315 17.1719 117.134 16.7074C116.939 16.2127 116.841 15.685 116.845 15.1533C116.844 14.6262 116.941 14.1035 117.134 13.6127C117.489 12.6776 118.197 11.9191 119.105 11.5C119.56 11.2876 120.057 11.179 120.56 11.1822C121.052 11.1786 121.543 11.2519 122.013 11.3994C122.475 11.5408 122.897 11.7892 123.244 12.1243C123.592 12.4593 123.856 12.8717 124.014 13.3279C124.206 13.8349 124.302 14.4634 124.302 15.2133C124.286 16.535 123.917 17.517 123.197 18.1593Z" fill="#6292F2"/>
<path d="M104.949 17.2178C104.949 17.0927 104.949 16.9702 104.956 16.8519C104.97 16.5092 105.005 16.1677 105.061 15.8293C105.081 15.7229 105.104 15.6172 105.125 15.5141C105.152 15.4119 105.177 15.3121 105.203 15.2124V15.2057C105.235 15.1093 105.264 15.013 105.296 14.9192C105.312 14.871 105.332 14.8262 105.348 14.778C105.364 14.7299 105.383 14.6885 105.402 14.6428C105.415 14.6175 105.425 14.5887 105.437 14.5583C105.706 13.9111 106.105 13.3266 106.611 12.842C107.048 12.4343 107.558 12.1117 108.113 11.8904C108.124 11.887 108.135 11.8827 108.145 11.8777L108.357 11.8008C108.566 11.7332 108.778 11.6721 108.993 11.6174C109.013 11.6115 109.035 11.6081 109.058 11.6014C109.379 11.5337 109.704 11.4907 110.032 11.4729C110.054 11.4729 110.183 11.4636 110.305 11.4602C110.36 11.4602 110.424 11.4602 110.495 11.4602H111.366V7.88214H109.794C109.709 7.88214 109.637 7.88214 109.576 7.88214C109.43 7.88214 109.282 7.89144 109.257 7.8982C108.875 7.91921 108.494 7.96864 108.119 8.04609C108.093 8.05538 108.067 8.05876 108.045 8.06552C107.792 8.12975 107.547 8.20074 107.302 8.28102C106.545 8.53493 105.85 8.94945 105.267 9.49626C105.158 9.59759 105.054 9.70479 104.956 9.81739V8.05961H100.979V22.3331H104.956L104.949 17.2178Z" fill="#6292F2"/>
<path d="M49.2628 9.76922C48.5779 9.07617 47.7659 8.52155 46.8712 8.13567C45.9443 7.74083 44.9472 7.53731 43.9396 7.53731C42.9321 7.53731 41.935 7.74083 41.008 8.13567C40.1134 8.5213 39.3014 9.07563 38.6164 9.76838C37.9303 10.4681 37.3814 11.2902 36.9981 12.1921C36.6038 13.1292 36.4006 14.1357 36.4006 15.1524C36.4006 16.1691 36.6038 17.1756 36.9981 18.1128C37.3817 19.0138 37.9306 19.835 38.6164 20.5339C39.3016 21.2258 40.1136 21.7792 41.008 22.1641C41.935 22.5589 42.9321 22.7625 43.9396 22.7625C44.9472 22.7625 45.9443 22.5589 46.8712 22.1641C47.7659 21.7785 48.5779 21.2241 49.2628 20.5314C49.949 19.8317 50.4979 19.0096 50.8812 18.1077C51.2761 17.1707 51.4795 16.1642 51.4795 15.1474C51.4795 14.1305 51.2761 13.124 50.8812 12.187C50.4972 11.2872 49.9483 10.4672 49.2628 9.76922ZM47.1772 16.9153C47.0057 17.369 46.7473 17.785 46.4166 18.1398C46.1022 18.4758 45.726 18.7481 45.3087 18.9418C44.8834 19.1382 44.4199 19.2381 43.9515 19.2342C43.4788 19.2372 43.0111 19.1374 42.5807 18.9418C42.1574 18.7511 41.776 18.4786 41.4585 18.1398C41.1275 17.7851 40.8691 17.3692 40.6979 16.9153C40.5081 16.4071 40.4143 15.8681 40.4215 15.3257C40.417 14.7691 40.5106 14.2162 40.6979 13.6921C40.8707 13.2083 41.1283 12.759 41.4585 12.3653C41.7698 11.9934 42.1511 11.6862 42.5807 11.4611C43.0031 11.2381 43.4738 11.122 43.9515 11.1231C44.4249 11.121 44.8915 11.2372 45.3087 11.4611C45.7338 11.689 46.1115 11.9959 46.4216 12.3653C46.7516 12.7592 47.0091 13.2084 47.1822 13.6921C47.3702 14.216 47.4641 14.7691 47.4594 15.3257C47.4651 15.8685 47.3694 16.4076 47.1772 16.9153Z" fill="#6292F2"/>
<path d="M90.2454 22.7633C91.2485 22.7684 92.2417 22.5646 93.1618 22.1649C94.0564 21.7793 94.8684 21.225 95.5534 20.5322C96.2398 19.8323 96.7891 19.0099 97.1726 18.1077C97.5669 17.1705 97.77 16.1641 97.77 15.1473C97.77 14.1306 97.5669 13.1241 97.1726 12.187C96.7887 11.286 96.2395 10.4647 95.5534 9.76583C94.8684 9.07308 94.0564 8.51875 93.1618 8.13312C92.235 7.7383 91.238 7.53479 90.2306 7.53479C89.2232 7.53479 88.2262 7.7383 87.2994 8.13312C86.4045 8.51834 85.5925 9.07272 84.9078 9.76583C84.2209 10.4658 83.6719 11.2889 83.2895 12.1921C82.8946 13.1291 82.6912 14.1356 82.6912 15.1524C82.6912 16.1692 82.8946 17.1757 83.2895 18.1127C83.6724 19.0141 84.2214 19.8354 84.9078 20.5339C85.5925 21.227 86.4045 21.7814 87.2994 22.1666C88.2293 22.5678 89.2326 22.771 90.2454 22.7633ZM86.7163 15.3265C86.7118 14.77 86.8053 14.217 86.9926 13.6929C87.1659 13.2092 87.4234 12.76 87.7532 12.3662C88.0647 11.9941 88.4463 11.6868 88.8763 11.4619C89.2987 11.2388 89.7694 11.1227 90.2471 11.1239C90.7189 11.1225 91.1836 11.2387 91.5992 11.4619C92.0225 11.6903 92.3985 11.9972 92.7071 12.3662C93.0373 12.7598 93.2949 13.2091 93.4677 13.6929C93.6557 14.2169 93.7495 14.7699 93.7449 15.3265C93.7522 15.869 93.6582 16.4081 93.4677 16.9161C93.2965 17.37 93.0381 17.786 92.7071 18.1406C92.3927 18.4766 92.0166 18.7489 91.5992 18.9426C91.1755 19.1384 90.7138 19.2383 90.2471 19.235C89.7744 19.2381 89.3066 19.1383 88.8763 18.9426C88.4526 18.7522 88.0709 18.4796 87.7532 18.1406C87.4225 17.7858 87.1642 17.3698 86.9926 16.9161C86.8027 16.4077 86.709 15.8683 86.7163 15.3256V15.3265Z" fill="#6292F2"/>
</svg>
